<?xml version="1.0" encoding="iso-8859-1"?>
<!-- Generator: Adobe Illustrator 18.0.0, SVG Export Plug-In . SVG Version: 6.00 Build 0)  -->
<!DOCTYPE svg PUBLIC "-//W3C//DTD SVG 1.1//EN" "http://www.w3.org/Graphics/SVG/1.1/DTD/svg11.dtd">
<svg xmlns="http://www.w3.org/2000/svg" xmlns:xlink="http://www.w3.org/1999/xlink" version="1.1" id="Capa_1" x="0px" y="0px" viewBox="0 0 197.213 197.213" style="enable-background:new 0 0 197.213 197.213;" xml:space="preserve" width="512px" height="512px">
<g>
	<path d="M182.213,83.606h-24.011c-8.284,0-15,6.716-15,15s6.716,15,15,15h24.011c8.284,0,15-6.716,15-15   S190.497,83.606,182.213,83.606z" fill="#FFFFFF"/>
	<path d="M54.011,98.606c0-8.284-6.716-15-15-15H15c-8.284,0-15,6.716-15,15s6.716,15,15,15h24.011   C47.295,113.606,54.011,106.891,54.011,98.606z" fill="#FFFFFF"/>
	<path d="M98.273,143.2c-8.284,0-15,6.716-15,15v24.012c0,8.284,6.716,15,15,15s15-6.716,15-15V158.2   C113.273,149.916,106.558,143.2,98.273,143.2z" fill="#FFFFFF"/>
	<path d="M98.272,0.001c-8.284,0-14.999,6.717-14.999,15.001v24.01c0,8.284,6.717,14.999,15.001,14.999s14.999-6.717,14.999-15.001   V15C113.273,6.716,106.557,0.001,98.272,0.001z" fill="#FFFFFF"/>
	<path d="M151.352,130.139c-5.857-5.857-15.355-5.857-21.213,0c-5.858,5.857-5.858,15.355,0,21.213l16.978,16.979   c2.929,2.929,6.768,4.394,10.607,4.394c3.839,0,7.678-1.465,10.606-4.394c5.858-5.857,5.858-15.355,0-21.213L151.352,130.139z" fill="#FFFFFF"/>
	<path d="M50.095,28.881c-5.857-5.859-15.355-5.857-21.213,0c-5.858,5.858-5.857,15.356,0,21.213l16.979,16.979   c2.929,2.93,6.768,4.394,10.606,4.394c3.839,0,7.678-1.465,10.606-4.394c5.858-5.858,5.857-15.355,0-21.213L50.095,28.881z" fill="#FFFFFF"/>
	<path d="M45.858,130.139l-16.979,16.98c-5.857,5.858-5.856,15.356,0.001,21.214c2.93,2.929,6.768,4.393,10.606,4.393   c3.839,0,7.679-1.465,10.607-4.393l16.979-16.98c5.857-5.858,5.856-15.356-0.001-21.214   C61.213,124.28,51.716,124.281,45.858,130.139z" fill="#FFFFFF"/>
	<path d="M140.744,71.466c3.839,0,7.678-1.465,10.606-4.394l16.979-16.98c5.858-5.858,5.858-15.355,0-21.213   c-5.857-5.859-15.355-5.858-21.213,0l-16.979,16.98c-5.858,5.858-5.857,15.356,0,21.213   C133.066,70.002,136.905,71.466,140.744,71.466z" fill="#FFFFFF"/>
</g>
<g>
</g>
<g>
</g>
<g>
</g>
<g>
</g>
<g>
</g>
<g>
</g>
<g>
</g>
<g>
</g>
<g>
</g>
<g>
</g>
<g>
</g>
<g>
</g>
<g>
</g>
<g>
</g>
<g>
</g>
</svg>
